<svg xmlns="http://www.w3.org/2000/svg" xmlns:xlink="http://www.w3.org/1999/xlink" viewBox="0 0 500 500"><defs><clipPath id="freepik--clip-path--inject-32"><path d="M275.5,338.15s-7-.63-13-1.3-8.52-1-8.52-1,2,12.68,2,13.5-4.14,12.95-4.14,12.95l4.5,14.21s19.58-.57,26.78-.87S302,373,302,373s-6.76-9.09-8.23-11.43a31.54,31.54,0,0,0-2.46-3.47L301.58,347s-1.41-9.75-2-11.21-.79-2.06-.79-2.06S279.59,338.57,275.5,338.15Z" style="fill:#54CC96;stroke:#263238;stroke-linecap:round;stroke-linejoin:round"></path></clipPath></defs><g id="freepik--background-simple--inject-32"><path d="M410.22,221.77c-.35-2-.66-3.9-.91-5.86-1.45-11.41-12-64.56-83.44-96.8-80.41-36.27-134.74,1-167.34,30.39s-55.41,91.15-73.88,145.06,25,95.08,78.23,112.73,120.61,19.6,172.77,1C387.23,389.85,430.32,332.11,410.22,221.77Z" style="fill:#54CC96"></path><path d="M410.22,221.77c-.35-2-.66-3.9-.91-5.86-1.45-11.41-12-64.56-83.44-96.8-80.41-36.27-134.74,1-167.34,30.39s-55.41,91.15-73.88,145.06,25,95.08,78.23,112.73,120.61,19.6,172.77,1C387.23,389.85,430.32,332.11,410.22,221.77Z" style="fill:#fff;opacity:0.75"></path></g><g id="freepik--Buildings--inject-32"><polyline points="299.45 79.17 299.45 283.12 356.61 383.14 411.41 383.14" style="fill:none;stroke:#263238;stroke-linecap:round;stroke-linejoin:round"></polyline><path d="M299.45,277.89H260.82L113.22,402.47a17.54,17.54,0,0,0-.11,26.72h0a17.57,17.57,0,0,0,11.42,4.22H410.14" style="fill:none;stroke:#263238;stroke-linecap:round;stroke-linejoin:round"></path><path d="M107,418.41a17.44,17.44,0,0,0,6.12,13.38h0A17.53,17.53,0,0,0,124.53,436H410.14" style="fill:none;stroke:#263238;stroke-linecap:round;stroke-linejoin:round"></path><line x1="83.1" y1="325.98" x2="230.53" y2="283.55" style="fill:none;stroke:#263238;stroke-linecap:round;stroke-linejoin:round"></line><polyline points="182.22 65.5 182.22 289.89 76 314.29" style="fill:none;stroke:#263238;stroke-linecap:round;stroke-linejoin:round"></polyline><line x1="204.74" y1="284.74" x2="229.46" y2="279.5" style="fill:none;stroke:#263238;stroke-miterlimit:10"></line><polyline points="182.94 148.93 204.75 148.46 204.75 284.74 182.22 285.21" style="fill:none;stroke:#263238;stroke-linecap:round;stroke-linejoin:round"></polyline><polyline points="205.24 148.93 236.88 176.26 236.88 221.77" style="fill:none;stroke:#263238;stroke-linecap:round;stroke-linejoin:round"></polyline><polyline points="233.28 164.75 233.28 149.65 249.11 149.65 249.11 204.31" style="fill:none;stroke:#263238;stroke-linecap:round;stroke-linejoin:round"></polyline><polyline points="249.11 149.65 257.74 162.59 257.74 189.92 267.81 189.92 267.81 200.71" style="fill:none;stroke:#263238;stroke-linecap:round;stroke-linejoin:round"></polyline><line x1="267.81" y1="189.92" x2="272.12" y2="196.4" style="fill:none;stroke:#263238;stroke-linecap:round;stroke-linejoin:round"></line><rect x="277.07" y="100.97" width="22.49" height="121.31" style="fill:none;stroke:#263238;stroke-linecap:round;stroke-linejoin:round"></rect><rect x="308.54" y="166.84" width="16.34" height="64.41" style="fill:none;stroke:#263238;stroke-linecap:round;stroke-linejoin:round"></rect><line x1="316.68" y1="163.99" x2="356.61" y2="138" style="fill:none;stroke:#263238;stroke-linecap:round;stroke-linejoin:round"></line><line x1="355.92" y1="119.84" x2="307.58" y2="161.07" style="fill:none;stroke:#263238;stroke-linecap:round;stroke-linejoin:round"></line><line x1="356.61" y1="85.13" x2="325.52" y2="123.67" style="fill:none;stroke:#263238;stroke-linecap:round;stroke-linejoin:round"></line><line x1="325.15" y1="215.26" x2="356.61" y2="208.18" style="fill:none;stroke:#263238;stroke-linecap:round;stroke-linejoin:round"></line><line x1="301.99" y1="220.54" x2="308.17" y2="218.97" style="fill:none;stroke:#263238;stroke-linecap:round;stroke-linejoin:round"></line><line x1="356.61" y1="383.15" x2="356.61" y2="73.59" style="fill:none;stroke:#263238;stroke-linecap:round;stroke-linejoin:round"></line><line x1="356.61" y1="208.18" x2="417" y2="208.18" style="fill:none;stroke:#263238;stroke-linecap:round;stroke-linejoin:round"></line><line x1="325.15" y1="211.68" x2="356.61" y2="202.3" style="fill:none;stroke:#263238;stroke-linecap:round;stroke-linejoin:round"></line><line x1="356.61" y1="202.3" x2="417" y2="202.3" style="fill:none;stroke:#263238;stroke-linecap:round;stroke-linejoin:round"></line><polyline points="324.84 202.38 355.54 187.23 397.92 187.23" style="fill:none;stroke:#263238;stroke-linecap:round;stroke-linejoin:round"></polyline><line x1="302.04" y1="213.64" x2="308.58" y2="210.41" style="fill:none;stroke:#263238;stroke-linecap:round;stroke-linejoin:round"></line><line x1="277.21" y1="126.95" x2="298.82" y2="126.95" style="fill:none;stroke:#263238;stroke-linecap:round;stroke-linejoin:round"></line><line x1="277.21" y1="150.81" x2="298.82" y2="150.81" style="fill:none;stroke:#263238;stroke-linecap:round;stroke-linejoin:round"></line><line x1="277.21" y1="174.67" x2="298.82" y2="174.67" style="fill:none;stroke:#263238;stroke-linecap:round;stroke-linejoin:round"></line><line x1="277.21" y1="198.52" x2="298.82" y2="198.52" style="fill:none;stroke:#263238;stroke-linecap:round;stroke-linejoin:round"></line><path d="M339.89,167H304a1.47,1.47,0,1,1,0-2.94h35.94a1.47,1.47,0,1,1,0,2.94Z" style="fill:none;stroke:#263238;stroke-miterlimit:10"></path><line x1="308.53" y1="81.2" x2="308.53" y2="153.08" style="fill:none;stroke:#263238;stroke-linecap:round;stroke-linejoin:round"></line><line x1="316.37" y1="74.66" x2="316.37" y2="147.85" style="fill:none;stroke:#263238;stroke-linecap:round;stroke-linejoin:round"></line><line x1="325.52" y1="68.13" x2="325.52" y2="139.35" style="fill:none;stroke:#263238;stroke-linecap:round;stroke-linejoin:round"></line><line x1="325.52" y1="108.34" x2="348.39" y2="72.05" style="fill:none;stroke:#263238;stroke-linecap:round;stroke-linejoin:round"></line><polyline points="182.31 168.59 204.43 168.59 233.54 187.62" style="fill:none;stroke:#263238;stroke-linecap:round;stroke-linejoin:round"></polyline><polyline points="182.31 185.68 204.43 185.68 233.54 203.14" style="fill:none;stroke:#263238;stroke-linecap:round;stroke-linejoin:round"></polyline><polyline points="182.31 202.75 204.43 202.75 233.54 218.28" style="fill:none;stroke:#263238;stroke-linecap:round;stroke-linejoin:round"></polyline><polyline points="182.31 219.83 204.43 219.83 230.83 231.48" style="fill:none;stroke:#263238;stroke-linecap:round;stroke-linejoin:round"></polyline><polyline points="182.31 236.91 204.43 236.91 223.45 243.23" style="fill:none;stroke:#263238;stroke-linecap:round;stroke-linejoin:round"></polyline><polyline points="182.31 253.99 204.43 253.99 210.77 255.35" style="fill:none;stroke:#263238;stroke-linecap:round;stroke-linejoin:round"></polyline><rect x="194.73" y="174.42" width="4.66" height="8.93" style="fill:none;stroke:#263238;stroke-linecap:round;stroke-linejoin:round"></rect><rect x="185.41" y="174.42" width="4.66" height="8.93" style="fill:none;stroke:#263238;stroke-linecap:round;stroke-linejoin:round"></rect><rect x="194.73" y="190.72" width="4.66" height="8.93" style="fill:none;stroke:#263238;stroke-linecap:round;stroke-linejoin:round"></rect><rect x="185.41" y="190.72" width="4.66" height="8.93" style="fill:none;stroke:#263238;stroke-linecap:round;stroke-linejoin:round"></rect><rect x="194.73" y="206.64" width="4.66" height="8.93" style="fill:none;stroke:#263238;stroke-linecap:round;stroke-linejoin:round"></rect><rect x="185.41" y="206.64" width="4.66" height="8.93" style="fill:none;stroke:#263238;stroke-linecap:round;stroke-linejoin:round"></rect><rect x="194.73" y="223.71" width="4.66" height="8.93" style="fill:none;stroke:#263238;stroke-linecap:round;stroke-linejoin:round"></rect><rect x="185.41" y="223.71" width="4.66" height="8.93" style="fill:none;stroke:#263238;stroke-linecap:round;stroke-linejoin:round"></rect><rect x="194.73" y="240.79" width="4.66" height="8.93" style="fill:none;stroke:#263238;stroke-linecap:round;stroke-linejoin:round"></rect><rect x="185.41" y="240.79" width="4.66" height="8.93" style="fill:none;stroke:#263238;stroke-linecap:round;stroke-linejoin:round"></rect><rect x="194.73" y="258.26" width="4.66" height="8.93" style="fill:none;stroke:#263238;stroke-linecap:round;stroke-linejoin:round"></rect><rect x="185.41" y="258.26" width="4.66" height="8.93" style="fill:none;stroke:#263238;stroke-linecap:round;stroke-linejoin:round"></rect><rect x="194.73" y="155.79" width="4.66" height="8.93" style="fill:none;stroke:#263238;stroke-linecap:round;stroke-linejoin:round"></rect><polyline points="212.2 170.15 208.7 167.43 208.7 158.5 212.2 161.22" style="fill:none;stroke:#263238;stroke-linecap:round;stroke-linejoin:round"></polyline><polyline points="208.7 175.19 212.2 177.91 212.2 186.84 208.7 184.12" style="fill:none;stroke:#263238;stroke-linecap:round;stroke-linejoin:round"></polyline><polyline points="212.2 195.38 212.2 203.35 208.7 201.59 208.7 192.66" style="fill:none;stroke:#263238;stroke-linecap:round;stroke-linejoin:round"></polyline><polygon points="212.2 218.77 208.7 217.01 208.7 208.08 212.2 210.2 212.2 218.77" style="fill:none;stroke:#263238;stroke-linecap:round;stroke-linejoin:round"></polygon><polyline points="212.2 235.13 208.7 233.84 208.7 224.91 212.2 226.56" style="fill:none;stroke:#263238;stroke-linecap:round;stroke-linejoin:round"></polyline><rect x="185.41" y="155.79" width="4.66" height="8.93" style="fill:none;stroke:#263238;stroke-linecap:round;stroke-linejoin:round"></rect><polyline points="330.09 337.35 330.09 219.73 345.77 217.77 345.77 362.84" style="fill:none;stroke:#263238;stroke-linecap:round;stroke-linejoin:round"></polyline><line x1="314.41" y1="309.25" x2="314.41" y2="234.11" style="fill:none;stroke:#263238;stroke-linecap:round;stroke-linejoin:round"></line><line x1="317.67" y1="314.48" x2="317.67" y2="238.03" style="fill:none;stroke:#263238;stroke-linecap:round;stroke-linejoin:round"></line><line x1="334.01" y1="113.22" x2="334.01" y2="134.78" style="fill:none;stroke:#263238;stroke-linecap:round;stroke-linejoin:round"></line><line x1="341.5" y1="104.79" x2="341.5" y2="126.35" style="fill:none;stroke:#263238;stroke-linecap:round;stroke-linejoin:round"></line><line x1="334.01" y1="71.09" x2="334.01" y2="94.3" style="fill:none;stroke:#263238;stroke-linecap:round;stroke-linejoin:round"></line><line x1="341.5" y1="62.66" x2="341.5" y2="82.44" style="fill:none;stroke:#263238;stroke-linecap:round;stroke-linejoin:round"></line><line x1="77.3" y1="321.67" x2="234.73" y2="280.98" style="fill:none;stroke:#263238;stroke-linecap:round;stroke-linejoin:round"></line><line x1="88.96" y1="239.99" x2="181.75" y2="245.21" style="fill:none;stroke:#263238;stroke-linecap:round;stroke-linejoin:round"></line><line x1="88.96" y1="224.96" x2="181.75" y2="237.37" style="fill:none;stroke:#263238;stroke-linecap:round;stroke-linejoin:round"></line><polyline points="134.7 300.28 134.7 247.53 119.02 246.94 119.02 303.91" style="fill:none;stroke:#263238;stroke-linecap:round;stroke-linejoin:round"></polyline><polyline points="149.73 296.8 149.73 248.09 139.28 247.7 139.28 299.22" style="fill:none;stroke:#263238;stroke-linecap:round;stroke-linejoin:round"></polyline><polyline points="114.45 304.97 114.45 246.77 90.27 245.87 90.27 310.56" style="fill:none;stroke:#263238;stroke-linecap:round;stroke-linejoin:round"></polyline><polyline points="177.83 290.3 177.83 249.13 154.31 248.26 154.31 295.75" style="fill:none;stroke:#263238;stroke-linecap:round;stroke-linejoin:round"></polyline><line x1="215.26" y1="171.48" x2="215.26" y2="162.19" style="fill:none;stroke:#263238;stroke-linecap:round;stroke-linejoin:round"></line><line x1="215.26" y1="188.1" x2="215.26" y2="178.81" style="fill:none;stroke:#263238;stroke-linecap:round;stroke-linejoin:round"></line><line x1="215.26" y1="220.37" x2="215.26" y2="211.08" style="fill:none;stroke:#263238;stroke-linecap:round;stroke-linejoin:round"></line><line x1="215.26" y1="236.75" x2="215.26" y2="227.46" style="fill:none;stroke:#263238;stroke-linecap:round;stroke-linejoin:round"></line><line x1="218.68" y1="222.33" x2="218.68" y2="213.04" style="fill:none;stroke:#263238;stroke-linecap:round;stroke-linejoin:round"></line><line x1="222.35" y1="209.13" x2="222.35" y2="199.84" style="fill:none;stroke:#263238;stroke-linecap:round;stroke-linejoin:round"></line><line x1="225.28" y1="211.33" x2="225.28" y2="202.04" style="fill:none;stroke:#263238;stroke-linecap:round;stroke-linejoin:round"></line><line x1="225.28" y1="195.19" x2="225.28" y2="185.9" style="fill:none;stroke:#263238;stroke-linecap:round;stroke-linejoin:round"></line><line x1="357.53" y1="217.12" x2="390.86" y2="217.12" style="fill:none;stroke:#263238;stroke-linecap:round;stroke-linejoin:round"></line><line x1="357.53" y1="228.22" x2="390.86" y2="228.22" style="fill:none;stroke:#263238;stroke-linecap:round;stroke-linejoin:round"></line><line x1="357.53" y1="239.33" x2="390.86" y2="239.33" style="fill:none;stroke:#263238;stroke-linecap:round;stroke-linejoin:round"></line><line x1="357.53" y1="250.44" x2="390.86" y2="250.44" style="fill:none;stroke:#263238;stroke-linecap:round;stroke-linejoin:round"></line><line x1="357.53" y1="261.55" x2="390.86" y2="261.55" style="fill:none;stroke:#263238;stroke-linecap:round;stroke-linejoin:round"></line><line x1="357.53" y1="272.66" x2="390.86" y2="272.66" style="fill:none;stroke:#263238;stroke-linecap:round;stroke-linejoin:round"></line><line x1="357.53" y1="283.77" x2="390.86" y2="283.77" style="fill:none;stroke:#263238;stroke-linecap:round;stroke-linejoin:round"></line><line x1="357.53" y1="294.88" x2="390.86" y2="294.88" style="fill:none;stroke:#263238;stroke-linecap:round;stroke-linejoin:round"></line><line x1="357.53" y1="305.99" x2="390.86" y2="305.99" style="fill:none;stroke:#263238;stroke-linecap:round;stroke-linejoin:round"></line><line x1="357.53" y1="317.1" x2="390.86" y2="317.1" style="fill:none;stroke:#263238;stroke-linecap:round;stroke-linejoin:round"></line><line x1="357.53" y1="328.2" x2="390.86" y2="328.2" style="fill:none;stroke:#263238;stroke-linecap:round;stroke-linejoin:round"></line><line x1="357.53" y1="339.31" x2="390.86" y2="339.31" style="fill:none;stroke:#263238;stroke-linecap:round;stroke-linejoin:round"></line><polyline points="390.86 207.97 390.86 353.04 397.4 353.04 397.4 379.83" style="fill:none;stroke:#263238;stroke-linecap:round;stroke-linejoin:round"></polyline><line x1="390.86" y1="353.04" x2="360.8" y2="353.04" style="fill:none;stroke:#263238;stroke-linecap:round;stroke-linejoin:round"></line><line x1="300.68" y1="273.31" x2="311.14" y2="281.81" style="fill:none;stroke:#263238;stroke-linecap:round;stroke-linejoin:round"></line><line x1="298.72" y1="233.45" x2="284.35" y2="233.45" style="fill:none;stroke:#263238;stroke-linecap:round;stroke-linejoin:round"></line><polyline points="285.23 233.69 285.23 245.1 290.59 245.1 290.59 233.86" style="fill:none;stroke:#263238;stroke-linecap:round;stroke-linejoin:round"></polyline><line x1="169.71" y1="235.24" x2="169.71" y2="60.95" style="fill:none;stroke:#263238;stroke-miterlimit:10"></line><line x1="176.68" y1="235.94" x2="176.68" y2="106.96" style="fill:none;stroke:#263238;stroke-miterlimit:10"></line><line x1="157.86" y1="234.54" x2="157.86" y2="78.38" style="fill:none;stroke:#263238;stroke-miterlimit:10"></line><line x1="144.61" y1="231.76" x2="144.61" y2="84.66" style="fill:none;stroke:#263238;stroke-miterlimit:10"></line><line x1="132.76" y1="230.36" x2="132.76" y2="81.87" style="fill:none;stroke:#263238;stroke-miterlimit:10"></line><line x1="117.42" y1="228.27" x2="117.42" y2="73.5" style="fill:none;stroke:#263238;stroke-miterlimit:10"></line><line x1="101.39" y1="227.57" x2="101.39" y2="79.08" style="fill:none;stroke:#263238;stroke-miterlimit:10"></line><line x1="92.32" y1="199.69" x2="177.38" y2="221.11" style="fill:none;stroke:#263238;stroke-miterlimit:10"></line><line x1="94.42" y1="175.29" x2="176.25" y2="201.51" style="fill:none;stroke:#263238;stroke-miterlimit:10"></line><line x1="112.54" y1="152.28" x2="177" y2="181.53" style="fill:none;stroke:#263238;stroke-miterlimit:10"></line><line x1="112.54" y1="85.35" x2="176.62" y2="129.88" style="fill:none;stroke:#263238;stroke-miterlimit:10"></line></g><g id="freepik--Streetlight--inject-32"><polygon points="160.97 136.24 129.6 134.61 129.6 121.54 160.97 119.9 160.97 136.24" style="fill:#54CC96;stroke:#263238;stroke-linecap:round;stroke-linejoin:round"></polygon><rect x="161.62" y="93.63" width="57.5" height="16.34" style="fill:#54CC96;stroke:#263238;stroke-linecap:round;stroke-linejoin:round"></rect><path d="M179.4,104.88a.87.87,0,0,1-.54.17.92.92,0,0,1-.55-.17.86.86,0,0,1-.34-.5l-1.23-4.13-1.23,4.13a.86.86,0,0,1-.34.5.92.92,0,0,1-.55.17.87.87,0,0,1-.54-.17.79.79,0,0,1-.32-.47l-1.26-4.77a1.37,1.37,0,0,1,0-.16.49.49,0,0,1,.18-.4.64.64,0,0,1,.41-.16.52.52,0,0,1,.34.12.56.56,0,0,1,.2.34l1.08,4.43L176,99.63a1,1,0,0,1,.29-.53.82.82,0,0,1,1,0,1,1,0,0,1,.29.53l1.25,4.18,1.09-4.43a.56.56,0,0,1,.2-.34.52.52,0,0,1,.34-.12.64.64,0,0,1,.41.16.5.5,0,0,1,.18.4,1.37,1.37,0,0,1,0,.16l-1.26,4.77A.79.79,0,0,1,179.4,104.88Z" style="fill:#fff"></path><path d="M181.76,101.81a1.86,1.86,0,0,1,.73-.77,2.06,2.06,0,0,1,1.12-.3,2.33,2.33,0,0,1,.87.16,1.57,1.57,0,0,1,.61.45,2.27,2.27,0,0,1,.35.65,2.45,2.45,0,0,1,.12.78.4.4,0,0,1-.08.27.25.25,0,0,1-.22.1h-2.68a1.11,1.11,0,0,0,1.22,1.19,2,2,0,0,0,1.13-.42.25.25,0,0,1,.16-.06.3.3,0,0,1,.23.11.4.4,0,0,1,.11.27.38.38,0,0,1-.14.29,2.39,2.39,0,0,1-1.56.56,2.21,2.21,0,0,1-1.61-.58,2.17,2.17,0,0,1-.6-1.63A2.37,2.37,0,0,1,181.76,101.81Zm2.89.74a1.38,1.38,0,0,0-.28-.8.86.86,0,0,0-.73-.31.9.9,0,0,0-.74.33,1.3,1.3,0,0,0-.31.78Z" style="fill:#fff"></path><path d="M186.25,104.33a.38.38,0,0,1,.09-.25.33.33,0,0,1,.25-.1.49.49,0,0,1,.22.06l.29.16a2.45,2.45,0,0,0,.37.13,2.07,2.07,0,0,0,.49.07,1.9,1.9,0,0,0,.44-.05.67.67,0,0,0,.33-.18.44.44,0,0,0,.14-.33c0-.24-.2-.41-.59-.5l-.66-.17-.48-.15a2.05,2.05,0,0,1-.38-.16.88.88,0,0,1-.46-.52,1.33,1.33,0,0,1-.06-.42,1,1,0,0,1,.46-.89,2.16,2.16,0,0,1,1.23-.31,3.13,3.13,0,0,1,1.38.31.37.37,0,0,1,.15.57.29.29,0,0,1-.23.1.38.38,0,0,1-.17,0l-.09,0-.13,0-.13,0-.17,0-.16,0-.2,0H188a1.29,1.29,0,0,0-.55.1.36.36,0,0,0-.23.34.34.34,0,0,0,.12.29,1.6,1.6,0,0,0,.48.18l.65.16a2.33,2.33,0,0,1,1,.46,1.06,1.06,0,0,1,.31.81,1.16,1.16,0,0,1-.47,1,2.07,2.07,0,0,1-1.24.34,2.72,2.72,0,0,1-1.66-.49A.32.32,0,0,1,186.25,104.33Z" style="fill:#fff"></path><path d="M191.28,104.73a1.43,1.43,0,0,1-.33-1v-2.19h-.41a.37.37,0,0,1-.28-.1.33.33,0,0,1-.1-.26.33.33,0,0,1,.09-.25.37.37,0,0,1,.28-.1H191l.13-1a.63.63,0,0,1,.16-.37.47.47,0,0,1,.37-.15.37.37,0,0,1,.29.12.65.65,0,0,1,.1.37v1.08h.68a.33.33,0,0,1,.27.1.41.41,0,0,1,.1.27.36.36,0,0,1-.1.25.37.37,0,0,1-.27.09H192v1.93a1.33,1.33,0,0,0,.1.6.36.36,0,0,0,.36.2h.38a.32.32,0,0,1,.27.11.42.42,0,0,1,.1.28.48.48,0,0,1,0,.18.25.25,0,0,1-.11.12l-.15.08a.88.88,0,0,1-.2,0h-.56A1.16,1.16,0,0,1,191.28,104.73Z" style="fill:#fff"></path><path d="M200.28,103.64h-2.7l-.38,1a.61.61,0,0,1-.22.31.57.57,0,0,1-.33.11.59.59,0,0,1-.41-.16.5.5,0,0,1-.17-.38.6.6,0,0,1,0-.22L198,99.66a1.32,1.32,0,0,1,.4-.63,1.06,1.06,0,0,1,1.12,0,1.4,1.4,0,0,1,.41.63l1.85,4.65a.63.63,0,0,1,.05.22.48.48,0,0,1-.18.38.58.58,0,0,1-.74,0,.61.61,0,0,1-.22-.31ZM198.93,100l-1,2.79H200Z" style="fill:#fff"></path><path d="M203.78,104.88a1.76,1.76,0,0,1-.37-.66l-1.13-2.74a.78.78,0,0,1,0-.21.47.47,0,0,1,.15-.35.54.54,0,0,1,.35-.14.44.44,0,0,1,.27.09.55.55,0,0,1,.19.27l1.11,2.83,1.11-2.83a.62.62,0,0,1,.19-.27.44.44,0,0,1,.27-.09.52.52,0,0,1,.35.14.47.47,0,0,1,.15.35.52.52,0,0,1,0,.21l-1.13,2.74a1.76,1.76,0,0,1-.37.66.83.83,0,0,1-1.06,0Z" style="fill:#fff"></path><path d="M207.15,101.81a1.84,1.84,0,0,1,.72-.77,2.12,2.12,0,0,1,1.13-.3,2.41,2.41,0,0,1,.87.16,1.65,1.65,0,0,1,.61.45,2,2,0,0,1,.34.65,2.77,2.77,0,0,1,.13.78.46.46,0,0,1-.08.27.26.26,0,0,1-.23.1H208a1.1,1.1,0,0,0,1.22,1.19,2,2,0,0,0,1.12-.42.27.27,0,0,1,.17-.06.31.31,0,0,1,.23.11.39.39,0,0,1,.1.27.37.37,0,0,1-.13.29,2.39,2.39,0,0,1-1.56.56,2.21,2.21,0,0,1-1.61-.58,2.17,2.17,0,0,1-.6-1.63A2.37,2.37,0,0,1,207.15,101.81Zm2.89.74a1.38,1.38,0,0,0-.28-.8.86.86,0,0,0-.73-.31.92.92,0,0,0-.75.33,1.29,1.29,0,0,0-.3.78Z" style="fill:#fff"></path><path d="M212.1,104.88a.54.54,0,0,1-.17-.42.57.57,0,0,1,.17-.42.6.6,0,0,1,.43-.17.64.64,0,0,1,.44.17.54.54,0,0,1,.17.42.55.55,0,0,1-.17.42.57.57,0,0,1-.44.18A.57.57,0,0,1,212.1,104.88Z" style="fill:#fff"></path><rect x="168.6" y="96.69" width="46.39" height="10.21" style="fill:none;stroke:#fff;stroke-linecap:round;stroke-linejoin:round"></rect><rect x="103.46" y="163.55" width="57.5" height="16.34" style="fill:#54CC96;stroke:#263238;stroke-linecap:round;stroke-linejoin:round"></rect><polygon points="148.01 167.61 118.85 167.61 118.85 165.02 107.39 171.47 118.85 177.93 118.85 175.34 148.01 175.34 148.01 167.61" style="fill:#fff"></polygon><polygon points="154.99 123.96 137.51 124.54 137.51 122.33 131.84 127.82 137.51 133.31 137.51 131.1 154.99 131.69 154.99 123.96" style="fill:#fff"></polygon><polygon points="167.5 390.45 156.34 390.45 158.01 61.06 165.83 61.06 167.5 390.45" style="fill:#263238;stroke:#263238;stroke-linecap:round;stroke-linejoin:round"></polygon><rect x="151.55" y="386.46" width="20.12" height="28.71" style="fill:#263238;stroke:#263238;stroke-linecap:round;stroke-linejoin:round"></rect><path d="M150,70.88h21.53V82.44a10.77,10.77,0,0,1-10.76,10.77h0A10.77,10.77,0,0,1,150,82.44Z" style="fill:#fff;stroke:#263238;stroke-linecap:round;stroke-linejoin:round"></path><path d="M158.48,57.87H163a11,11,0,0,1,11,11V80.2a0,0,0,0,1,0,0H147.5a0,0,0,0,1,0,0V68.85A11,11,0,0,1,158.48,57.87Z" style="fill:#263238;stroke:#263238;stroke-linecap:round;stroke-linejoin:round"></path></g><g id="freepik--Character--inject-32"><ellipse cx="258.21" cy="418.22" rx="31.37" ry="10.29" style="opacity:0.11"></ellipse><path d="M267,241.75s14.84-.14,21.46,2.44,9.66,18.32,9.74,24.44-3.94,8.61-3.94,8.61l.59,3.89a10.15,10.15,0,0,1,7.43,10.66c-.3,8.88-.47,18.46-7.16,21.64s-36.25-.71-40.8-7.68,4.14-18.54,2.15-29.68-4-22.11-3.39-30.09S267,241.75,267,241.75Z" style="fill:#263238;stroke:#263238;stroke-linecap:round;stroke-linejoin:round"></path><path d="M302.31,291.79a10.15,10.15,0,0,0-7.43-10.66l-.59-3.89s4-2.5,3.94-8.61c-.07-5.6-2.63-19.29-8.15-23.53l-.09.07s-5.21-2.83-8.08,3.07-3.79,16.13-3.37,22.45-2.2,20.61-3.24,30.13c-.65,5.89,1.41,10.51,5.17,13.41,6.43.59,12.17.4,14.68-.8C301.84,310.25,302,300.67,302.31,291.79Z" style="fill:#54CC96;stroke:#263238;stroke-linecap:round;stroke-linejoin:round"></path><path d="M295.71,256.83a83.32,83.32,0,0,1-13.69,3l-.2,2.78a50,50,0,0,0,14.29-2.78Z" style="fill:#263238;stroke:#263238;stroke-linecap:round;stroke-linejoin:round"></path><path d="M301.62,287.08a90.46,90.46,0,0,1-9.08,3.49c-4,1.19-6,1.19-5.76,3.18s.4,10.92,3.57,13.3,9.22,1.17,11.27-2.05C303.55,302,305.21,294.52,301.62,287.08Z" style="fill:#263238;stroke:#263238;stroke-linecap:round;stroke-linejoin:round"></path><path d="M294.29,277.24s-6.59,1.79-21.4,3.86l.17,4.9s15.34-2.2,21.82-4.87Z" style="fill:#263238;stroke:#263238;stroke-linecap:round;stroke-linejoin:round"></path><path d="M236.76,348.46s-2,8.4-1,14.06,10.57,29.91,11.51,33.82,1.7,7.8,1.7,7.8l5.8-.62A114.47,114.47,0,0,0,253.23,386c-1.65-10.94-1.46-16-2.88-20.45a31.09,31.09,0,0,0-2.2-5.74l3-7.47Z" style="fill:#fff;stroke:#263238;stroke-linecap:round;stroke-linejoin:round"></path><path d="M259.84,355s-1.16,6.37-.87,9.54,5.89,29.4,6.92,34.53,1.84,10.61,1.84,10.61l5,.54s2.66-15,2.09-23.94-4.25-20.72-4.25-20.72l5.21-11.67Z" style="fill:#fff;stroke:#263238;stroke-linecap:round;stroke-linejoin:round"></path><path d="M241.63,316.68s-3.7,11-5.47,19.52a104.1,104.1,0,0,0-2,15.36,54.14,54.14,0,0,0,8.52,2.24c4.12.65,9.52,1.27,9.52,1.27l.15,1.05s2.18,1.9,11.46,1.65a147.9,147.9,0,0,0,16.89-1.44s.82-24,.07-28a70.75,70.75,0,0,1-1-7.25s-11.81.07-23-.74S241.63,316.68,241.63,316.68Z" style="fill:#263238;stroke:#263238;stroke-linecap:round;stroke-linejoin:round"></path><path d="M234.46,348.59s12.23,3.29,17.88,2.9" style="fill:none;stroke:#fff;stroke-linecap:round;stroke-linejoin:round"></path><path d="M252.6,352.28s14.86,2.89,28.14-.53" style="fill:none;stroke:#fff;stroke-linecap:round;stroke-linejoin:round"></path><path d="M252.15,355.07l3-23.94a27.49,27.49,0,0,1,3.39-2.3" style="fill:none;stroke:#fff;stroke-linecap:round;stroke-linejoin:round"></path><line x1="255.08" y1="332.14" x2="250.05" y2="326.69" style="fill:none;stroke:#fff;stroke-linecap:round;stroke-linejoin:round"></line><path d="M255.46,252s-8.42-1-11.36-.59-8.73,1.69-11.17,1.63-11.06.13-14.53-.12-8.6-.16-7.63,2.47,7.76,8.47,14.83,10.5l11.4,3.27s4.49,11.85,6.62,16.07,2,9.11,2.06,11.67-5,20.93-5,20.93,4.86,3.61,16.27,5a83.08,83.08,0,0,0,21.92-.5,6.71,6.71,0,0,0,1.64-.23s.33-15.68.32-28.36,3.41-21.28-1.12-29.41-15.84-11-19-11.85A14.07,14.07,0,0,0,255.46,252Z" style="fill:#fff;stroke:#263238;stroke-linecap:round;stroke-linejoin:round"></path><path d="M260.66,252.46a14.07,14.07,0,0,0-5.2-.5s-8.42-1-11.36-.59-8.73,1.69-11.17,1.63c-1.05,0-3.26,0-5.71,0a20.79,20.79,0,0,0-4.91,11.62,25.07,25.07,0,0,0,3.29,1.22l11.4,3.27s4.49,11.85,6.62,16.07,2,9.11,2.06,11.67-5,20.93-5,20.93,4.86,3.61,16.27,5a83.08,83.08,0,0,0,21.92-.5,6.71,6.71,0,0,0,1.64-.23s.33-15.68.32-28.36,3.41-21.28-1.12-29.41S263.86,253.27,260.66,252.46Z" style="fill:#fff;stroke:#263238;stroke-linecap:round;stroke-linejoin:round"></path><path d="M251.48,251.87a34,34,0,0,0-.72,10.73c.7,4.88,3.72,6.27,7.43,5.57s7.66-7.19,8.59-10.67.69-4.64-3.48-5.57S253.59,248.32,251.48,251.87Z" style="fill:none;stroke:#263238;stroke-linecap:round;stroke-linejoin:round"></path><polyline points="232.02 257.37 238.5 268.39 234.18 264.07" style="fill:none;stroke:#263238;stroke-linecap:round;stroke-linejoin:round;stroke-width:0.5px"></polyline><line x1="238.5" y1="268.39" x2="236.13" y2="258.45" style="fill:none;stroke:#263238;stroke-linecap:round;stroke-linejoin:round;stroke-width:0.5px"></line><path d="M256.33,284.88s8.13,6.74,16.95,5.81" style="fill:none;stroke:#263238;stroke-linecap:round;stroke-linejoin:round;stroke-width:0.5px"></path><path d="M252.62,287.44a41.88,41.88,0,0,0,16,3.71" style="fill:none;stroke:#263238;stroke-linecap:round;stroke-linejoin:round;stroke-width:0.5px"></path><path d="M244.93,301.52s4.3,4.48,16.28,3.73,19.62-3.9,19.62-3.9l-.05,3.82s-15.68,5.46-28.34,2.92c-7.52-1.51-8.59-2.94-8.59-2.94Z" style="fill:#263238;stroke:#263238;stroke-linecap:round;stroke-linejoin:round"></path><path d="M222.69,255.45s3.11-1.39,7.38-5.94,8.48-6.8,10.47-7.12a40.24,40.24,0,0,0,6.38-1.73c.6-.31,3.3-.8,4.24-2.59s-.85-1-1.9-.95-.14-1.16,1-2.47,3.8-4.47,3.47-6.23-2.84-.79-6.79,1-6.53,5.43-7.44,6.75a6.91,6.91,0,0,1-1.52,1.74s-9.31,4-16.76,7.7-10.79,6.62-10.74,9.17,2.77,3.22,2.77,3.22" style="fill:#fff;stroke:#263238;stroke-linecap:round;stroke-linejoin:round"></path><path d="M251.69,250.17s.25,4.81.86,9.3,2.68,7.89,6.63,5.27,5.36-9,5.36-9A27,27,0,0,1,251.69,250.17Z" style="fill:none;stroke:#263238;stroke-linecap:round;stroke-linejoin:round"></path><path d="M245,239.85s-1.36,1.1-.46,4a3.5,3.5,0,0,0,4.55,2.12c.19-.33,1.08,3.93,2.39,5.91s7.64,5.51,10.34,6,5-1.09,5.42-2.69a87.44,87.44,0,0,0,1-12.75c0-4.28.35-6.05-.46-7.82s-2.34-3.16-7.6-3.63-8.41,1.44-11,3.3a4.3,4.3,0,0,0-2.1,4.21Z" style="fill:#fff;stroke:#263238;stroke-linecap:round;stroke-linejoin:round"></path><path d="M246.71,238.61a8.09,8.09,0,0,0,1.61,2.68,9.13,9.13,0,0,0,1.6,1.48l-.5-2.51,1.14.76a14.7,14.7,0,0,0-.14-1.63c-.11-.78,1.19.17,1.19.17a8.3,8.3,0,0,1,.47-3,4.7,4.7,0,0,1,.77-1.23S247.42,237.2,246.71,238.61Z" style="fill:#263238;stroke:#263238;stroke-linecap:round;stroke-linejoin:round"></path><path d="M245,239.85s8-6.69,23.08-4.57c0,0-.83-8.61-2.1-10s-5.36-3.82-11.84-1.81-10.32,5.58-10.47,7.62S245,239.85,245,239.85Z" style="fill:#54CC96;stroke:#263238;stroke-linecap:round;stroke-linejoin:round"></path><path d="M252.08,236.6s4.09,1.33,7.16.35a28.51,28.51,0,0,1,12.19-1.85c5.7.41,4.92.53,4.92.53s-3.19-2-11-1.66S251.61,236,252.08,236.6Z" style="fill:#54CC96;stroke:#263238;stroke-linecap:round;stroke-linejoin:round"></path><path d="M267,235.37s1.64,1,6.54,1.85,4.39-.37,2.85-1.59S267.43,234.81,267,235.37Z" style="fill:#54CC96;stroke:#263238;stroke-linecap:round;stroke-linejoin:round"></path><path d="M263.52,238a1.91,1.91,0,0,0-.23,1.95,16.11,16.11,0,0,1,.78,4.59c0,.34-.06.77-1.25.68a14.18,14.18,0,0,1-2.61-.53" style="fill:none;stroke:#263238;stroke-linecap:round;stroke-linejoin:round"></path><path d="M259,239.93c0,.66-.37,1.17-.72,1.14s-.6-.58-.56-1.23.38-1.18.73-1.15S259.07,239.27,259,239.93Z" style="fill:#263238"></path><path d="M266.28,239.43c0,.66-.37,1.17-.72,1.14s-.6-.58-.55-1.23.37-1.17.72-1.15S266.33,238.77,266.28,239.43Z" style="fill:#263238"></path><path d="M255.5,237.79s1.55-2.64,4.14-1.75" style="fill:none;stroke:#263238;stroke-linecap:round;stroke-linejoin:round"></path><path d="M264.56,235.46s2.37-.77,2.92,1.06" style="fill:#fff;stroke:#263238;stroke-linecap:round;stroke-linejoin:round"></path><path d="M260,249.88s2-2.83,4.05-.57" style="fill:none;stroke:#263238;stroke-linecap:round;stroke-linejoin:round"></path><path d="M272.32,257s-5.24.77-6.54,10.31c-1.19,8.7,3.26,17.89,5.78,21.31s4.36,5.41,5.62,5.5,2.54.19,3.87-7,4.4-12.76,1.41-19.35S277.74,260.42,272.32,257Z" style="fill:#263238;stroke:#263238;stroke-linecap:round;stroke-linejoin:round"></path><path d="M247.75,251.49a28.87,28.87,0,0,0-6.3,11.92c-2.19,7.83,2.05,21.11,2.65,22.42a19.49,19.49,0,0,1,1,3.78,44.26,44.26,0,0,1-6.54-11.93,29.72,29.72,0,0,1-1.35-18.05,22.89,22.89,0,0,1,4.51-8A19.6,19.6,0,0,1,247.75,251.49Z" style="fill:#263238;stroke:#263238;stroke-linecap:round;stroke-linejoin:round"></path><path d="M274.15,407.22s-6.82.16-7.49.48-.66,2.66-.66,2.66-4.37,6.2-6.6,7.44-5.68,3.36-5.21,4.61,1.2,1.48,5.46,1.79,11.24-3,13.88-3.32,2.38-.67,2.15-2.64-1.51-7.38-1.51-7.38A6.47,6.47,0,0,0,274.15,407.22Z" style="fill:#54CC96;stroke:#263238;stroke-linecap:round;stroke-linejoin:round"></path><path d="M266,410.36s-1.27-4.29.41-4.45,3.48-.4,3.55,1.19a13.31,13.31,0,0,1-.85,4S266.87,411.16,266,410.36Z" style="fill:#fff;stroke:#263238;stroke-linecap:round;stroke-linejoin:round"></path><path d="M269.11,411.14s-2.22,3.57-4.27,4.91-3-.22-2.85-.58,4-5.11,4-5.11Z" style="fill:#fff;stroke:#263238;stroke-linecap:round;stroke-linejoin:round"></path><path d="M258.44,422.9c-3-.22-3.88-1.12-4.15-1.56a1.3,1.3,0,0,0-.1,1.07c.47,1.24,1.2,1.48,5.46,1.79s11.24-3,13.88-3.32,2.38-.67,2.15-2.64c0-.1,0-.22-.05-.34-1.13.43-2.78,1-4.51,1.5C268,420.29,262.43,423.19,258.44,422.9Z" style="fill:#263238;stroke:#263238;stroke-linecap:round;stroke-linejoin:round"></path><path d="M255.49,401s-6.74.34-7.35,1.14-2.88,4.92-5.82,6.94-5.64,1.92-6.51,3.63,1.81,2.09,5,2.88,5.21.1,8.12-1.46,5.4-1.1,8-2-.3-7.39-.25-8,.63-1,.25-2.21A1.08,1.08,0,0,0,255.49,401Z" style="fill:#54CC96;stroke:#263238;stroke-linecap:round;stroke-linejoin:round"></path><path d="M256.92,412.12c1.06-.38,1.19-1.68,1-3.13-1.18,1.2-3.81,1.46-6.17,2.47-2.79,1.2-4.87,2.82-9.06,2.79a18.87,18.87,0,0,1-6.91-1.45c-.75,1.64,1.88,2,5,2.81s5.21.1,8.12-1.46S254.34,413.05,256.92,412.12Z" style="fill:#263238;stroke:#263238;stroke-linecap:round;stroke-linejoin:round"></path><path d="M246.64,404.75s-.72-2.85-1.2-4,3.7-2.15,4.26-.81-1.06,5.52-1.06,5.52Z" style="fill:#fff;stroke:#263238;stroke-linecap:round;stroke-linejoin:round"></path><path d="M248.64,405.46s-1.84,3.5-4,4.46-3.14-.42-3.14-.42a11.19,11.19,0,0,0,4.82-4.77Z" style="fill:#fff;stroke:#263238;stroke-linecap:round;stroke-linejoin:round"></path><path d="M275.5,338.15s-7-.63-13-1.3-8.52-1-8.52-1,2,12.68,2,13.5-4.14,12.95-4.14,12.95l4.5,14.21s19.58-.57,26.78-.87S302,373,302,373s-6.76-9.09-8.23-11.43a31.54,31.54,0,0,0-2.46-3.47L301.58,347s-1.41-9.75-2-11.21-.79-2.06-.79-2.06S279.59,338.57,275.5,338.15Z" style="fill:#54CC96"></path><g style="clip-path:url(#freepik--clip-path--inject-32)"><path d="M288.08,345.7h13.31c-.09-.57-.2-1.29-.32-2.08H289.76c2.49-3.21,5.35-7.23,6.84-9.36l-3.08.73c-3,4.29-7.41,10.2-8.93,11.39-1.76,1.39-12.82,6.92-19.08,10,1.42-3.63,2.64-7.22,2.4-8.31a28.88,28.88,0,0,0-1.75-3.9l6.79-6.26-2.8-.26-5,4.59c-1-1.86-2-3.83-2.89-5.41l-2.54-.29c2.66,4.87,5.92,11,6.12,11.94.08,1.07-2.35,7.5-4.65,12.84a1,1,0,0,0,.39,1.3l4.2,2.66-7.71,3-5.51-3.68,1,3.18,2.13,1.43-1.5.58.64,2,3-1.17,6.47,4.31a1,1,0,0,0,1.25-.07l6.64-5.62c3.74,2.3,7.76,4.71,10.83,6.4h.1c1.78-.08,3.84-.28,5.92-.53l-4.94-5.06a16.8,16.8,0,0,0,7.41,1.4,36.11,36.11,0,0,0,8.55-1.11c-.42-.56-.87-1.18-1.34-1.83-5.57,1.25-11.08,1.15-13.9-.43a3.39,3.39,0,0,1-1.84-2.22,1.14,1.14,0,0,1,.27-1.05c1.44-1.69,6.93-2.26,11.18-2.28-.26-.38-.48-.7-.63-.95-.26-.42-.5-.78-.73-1.12-3.82.11-9.44.68-11.41,3a3.24,3.24,0,0,0-.73,2.83,5.07,5.07,0,0,0,.25.78l-7-7.2.47-5.72,1.33-.67L291.51,358l1.58-1.72-14.43-4.15a66.84,66.84,0,0,0,7.22-4.08A16.58,16.58,0,0,0,288.08,345.7Zm-23.27,27.09-4.6-3.07,7.79-3.05,2.33,1.45Zm21,2c-1.89-1-4.58-2.52-7.51-4.27l2.5-.85ZM279.17,368l-3.21,1.1c-4.64-2.82-9.48-5.86-12.49-7.79.28-.64.57-1.33.87-2.05,1-.47,4.3-2.1,8.09-4L272,360.2a1.05,1.05,0,0,0,.3.81Z" style="fill:#fff"></path><path d="M301.58,347,256,349.38c-.06.82-4.14,12.95-4.14,12.95l39.5-4.19Z" style="opacity:0.26"></path><line x1="277.3" y1="340.39" x2="266.52" y2="341.79" style="fill:none;stroke:#263238;stroke-linecap:round;stroke-linejoin:round;stroke-width:0.5px"></line><line x1="277.5" y1="342.39" x2="269.92" y2="345.18" style="fill:none;stroke:#263238;stroke-linecap:round;stroke-linejoin:round;stroke-width:0.5px"></line><line x1="283.69" y1="341.99" x2="292.08" y2="343.59" style="fill:none;stroke:#263238;stroke-linecap:round;stroke-linejoin:round;stroke-width:0.5px"></line><line x1="284.49" y1="339.99" x2="290.68" y2="339.99" style="fill:none;stroke:#263238;stroke-linecap:round;stroke-linejoin:round;stroke-width:0.5px"></line></g><path d="M275.5,338.15s-7-.63-13-1.3-8.52-1-8.52-1,2,12.68,2,13.5-4.14,12.95-4.14,12.95l4.5,14.21s19.58-.57,26.78-.87S302,373,302,373s-6.76-9.09-8.23-11.43a31.54,31.54,0,0,0-2.46-3.47L301.58,347s-1.41-9.75-2-11.21-.79-2.06-.79-2.06S279.59,338.57,275.5,338.15Z" style="fill:none;stroke:#263238;stroke-linecap:round;stroke-linejoin:round"></path><path d="M286.49,296.79c0-3.13-.79-6.66-.48-11s.32-15.49-1.76-18.77-8.55-6.53-8.55-6.53a11.22,11.22,0,0,0-4.65,6.61c-1.14,4.55.17,10.43.17,10.43s4.67,15.28,4.77,15.63a72.82,72.82,0,0,1,0,9.95,33.42,33.42,0,0,0,1.25,11.44,95.44,95.44,0,0,1,1.4,15.73,5.27,5.27,0,0,1-1.88,3.57c-.88,1-2.17,2.85-1.6,4.51h1.74s.63,2.37.71,3-.15,3.58,1,3.66,2.1-1.93,2.1-1.93,3-.13,3.74-2,.15-6.82.15-6.82,1.61-12.62,2.55-20.77S286.49,299.91,286.49,296.79Z" style="fill:#fff;stroke:#263238;stroke-linecap:round;stroke-linejoin:round"></path><path d="M275.7,260.46a11.22,11.22,0,0,0-4.65,6.61c-1.14,4.55.17,10.43.17,10.43s1.78,5.82,3.16,10.35a20.3,20.3,0,0,0,11.56-.25c0-.6,0-1.21.07-1.84.32-4.38.32-15.49-1.76-18.77S275.7,260.46,275.7,260.46Z" style="fill:#fff;stroke:#263238;stroke-linecap:round;stroke-linejoin:round"></path><path d="M275.88,269.25c-3.24,3.46-3.89,10.59-3.89,10.59s-.86-7.56,2.38-13" style="fill:none;stroke:#263238;stroke-linecap:round;stroke-linejoin:round;stroke-width:0.5px"></path></g></svg>