<svg xmlns="http://www.w3.org/2000/svg" viewBox="0 0 858.25 332.14"><defs><style>.cls-1{fill:#6868fa;}</style></defs><title>project</title><g id="Layer_2" data-name="Layer 2"><g id="OBJECTS"><path class="cls-1" d="M499.3,290.59c-14.37.61-27.15,1.18-39.94,1.67a7.08,7.08,0,0,0-5.46,3c-12.12,15.1-28.35,18.83-46.59,16.59-4.93-.6-9.95-.74-14.76-2.4-3.22-1.11-4.56-3-4.23-6.32s2.77-3.83,5.34-4a18.5,18.5,0,0,0,9.68-3.64c-134.9,6.9-269.07,21.4-403.34,36.62,4.51-1.49,9-3.1,13.52-4.47,67.92-20.46,137.17-34.9,207.21-45.8q58.26-9.06,116.94-14.51c24.36-2.26,48.74-4.42,73.2-5.36,3-.12,6-.62,8.95-.8,5.81-.36,8.16-4.12,6-9.65-1.07-2.74-3.43-2.26-5.51-2.26-15,0-30-.19-45,.05-4.88.08-6.26-1.7-6.23-6.4.17-33.32.06-66.65.22-100A58.13,58.13,0,0,1,371,129.11c4.13-16.33,12.93-23.47,33.06-26,17.91-2.21,35.95-.74,53.93-1,7-.11,7.37.34,7.37,7.31q0,70.25,0,140.48c0,1.67.06,3.34,0,5-.08,2.91,1.24,4.27,4.2,4.24q18.75-.14,37.49-.13c3,0,4.21-1.34,4.13-4.24s0-5.67,0-8.5q0-57,0-114c0-7.09.11-7.18,7.35-7.19,15,0,30-.09,45,0,9.3.09,18.26,1.89,26.24,7,11.24,7.14,14.15,18.54,14.57,30.71.47,13.32.14,26.66.24,40,0,2.4-.86,5.77,2.12,6.58a19.61,19.61,0,0,0,12.72-.35c1.58-.65,1.07-2.6,1.06-4.08q0-36.25-.06-72.49c0-7,.41-7.35,7.35-7.36,8.67,0,17.34.16,26-.07,4.39-.12,5.77,1.56,5.75,5.85-.15,24-.1,48,0,72,0,2.34-1.11,5.78,2,6.54,4.11,1,8.69,1.64,12.62-.58,2-1.15,1.18-4,1.18-6.1q.06-46,0-92c0-8.62,0-8.62,8.57-8.63,8,0,16,0,24,0,6.32,0,6.51.19,6.51,6.44q0,46.49,0,93c0,8.25,1,9,9.35,8.19a87.07,87.07,0,0,1,10.46-.46c3.69.09,5.21-1.47,4.94-5.08-.12-1.49,0-3,0-4.49,0-30.5.08-61-.07-91.49,0-4.51,1.36-6.27,6-6.14,17.81.51,35.65-.78,53.44,1,12.53,1.23,24.07,4.24,30.75,16.4,3.28,6,4.43,12.5,5.16,19.16,1.17,10.63.88,21.3.89,31.95q0,36,0,72c0,6.51-.21,6.7-6.8,6.7l-255.46,0c-7,0-7.65-.59-7.66-7.75,0-22.5,0-45,0-67.49,0-7.27-2.92-9.83-10.07-9.85-3.7,0-5.23,1.47-4.92,5.07,0,.49,0,1,0,1.5,0,27.33.09,54.66-.08,82,0,4.62,1.19,6.55,6.16,6.43,24.16-.56,48.28,1,72.39,2.16,35.73,1.77,71.39,4.79,107,8.46,36.79,3.79,73.37,8.94,109.95,14.24,6.07.88,9.61,4.27,11.3,9.82,4.3,14-3.61,27.79-16.86,28.95-6.22.54-12.2-1.38-18-3.51a334.74,334.74,0,0,0-51-14.18c-23.56-4.61-47.34-7.52-71.2-9.93-50.13-5.07-100.42-5.26-150.72-5.12-4.69,0-7.58,1.6-10.38,5.25-10.31,13.41-24.71,18-41,17.61a104.41,104.41,0,0,1-14.36-1.82c-3.42-.55-6.31-1.59-6.41-6.15-.1-4.35,2.37-5.34,5.76-5.95A29.66,29.66,0,0,0,499.3,290.59ZM426.11,175.43c0-9.65-.09-19.3,0-29,.06-3.87-1.54-5.21-5.35-5.29-11.25-.22-12.86,1.19-13.26,12.68,0,1.16,0,2.33,0,3.49,0,13-.11,26,0,38.94.16,14.8-2.41,12.68,13.48,13,4,.07,5.21-1.63,5.15-5.38C426,194.4,426.12,184.92,426.11,175.43Zm351.45-.69c0,7.48-.07,15,0,22.45.14,13.67-1.88,11.74,12.32,12.16,5.23.16,6.46-1.87,6.39-6.72-.25-16.12-.08-32.25-.1-48.38,0-10.73-2.61-13.05-13.31-13.07-4.25,0-5.46,1.64-5.37,5.63C777.69,156.12,777.56,165.43,777.56,174.74Z"/><path class="cls-1" d="M198.18,249.27q-67,0-134,0c-12.23,0-23.82-2.37-34.06-9.58-6.18-4.34-9.56-10.55-11.8-17.48a65.62,65.62,0,0,1-2.9-19.71c-.16-20.82.05-41.66-.15-62.48-.05-5,1.55-7.1,6.79-7.33a260.3,260.3,0,0,1,26.94,0c4.5.27,5.54,2.22,5.5,6.28-.16,14.66,0,29.33-.11,44a156.61,156.61,0,0,0,1.15,16.93c.64,6.31,3.86,9.22,10.16,9.23,32.66.05,65.32,0,98,.08,3.61,0,4.83-1.09,4.82-4.92q-.19-98-.11-196c0-7.87.4-8.24,8.1-8.25C184.68.1,192.86.35,201,0c5-.21,6.6,1.53,6.58,6.58-.16,45-.1,90-.1,135,0,20.5.13,41-.09,61.49-.05,4.89,1.67,6.32,6.38,6.22,11.49-.24,23,0,34.49-.06,1.73,0,4,.81,5-1.15s-.91-3.37-1.78-4.91c-5.4-9.57-11.87-18.53-15.82-28.9-13.09-34.36,12.44-72.21,49.21-73.32,15.53-.47,29.91,2,41.84,12.74,10.09,9.13,15.54,20.51,16.82,34.09.9,9.65.55,19.3.74,28.95.08,3.82-1.48,5.44-5.33,5.39-9-.11-18-.16-27,0-4.42.09-5.74-1.91-5.78-6-.08-6.65-.55-13.3-1-19.94-.51-7.49-4.56-13.2-11.14-15.06-6.95-2-13.24-.47-18.2,5-4.78,5.31-4.59,11.37-1.49,17.21,4.92,9.26,10.27,18.3,15.49,27.41,2.81,4.91,5.86,9.7,8.53,14.69,1.56,2.9,3.7,3.89,6.86,3.86,11-.1,22,.11,33-.09,4.58-.08,6.19,1.71,6.09,6.2-.21,9.16,0,18.33-.07,27.49,0,6.1-.3,6.37-6.62,6.37Z"/><path class="cls-1" d="M111.65,161.38c-6.49,0-13-.2-19.47.07-4.66.2-6.41-1.75-6-6.19a33.18,33.18,0,0,0,0-4c-.05-3,1.51-4,4.34-4.18,11-.79,11-.86,5.28-10.65-8-13.65-4.2-28,9.12-33.48,8.34-3.44,16.7-3.12,24.11,2.58,8,6.12,8.42,15,8,24-.12,2.37-1.64,3.53-4,3.56-2,0-4,0-6,.06-3.42.12-4.75-1.61-4.78-4.88a25.93,25.93,0,0,0-.66-6.42c-1.3-4.91-5.3-6.83-10.08-5.09-4.39,1.6-6.22,5.65-4,10.08,3,5.93,6.51,11.61,9.8,17.39a5.59,5.59,0,0,0,5.44,2.84c2,0,4,0,6,0,8.06,0,10.39,3.26,8.26,11.21-.75,2.77-2.72,3.05-5,3.05Z"/><path class="cls-1" d="M641.33,27c8.22,0,15.42,7,15.46,15.13,0,7.8-7.14,15-15,15.1A15.12,15.12,0,1,1,641.33,27Z"/><path class="cls-1" d="M622.5,87.25A15.11,15.11,0,0,1,623.35,57a15.54,15.54,0,0,1,15,15.53C638.17,80.66,630.84,87.44,622.5,87.25Z"/><path class="cls-1" d="M659.43,57.05c8.16-.06,15.65,7,15.84,14.86S668.1,87.2,660,87.26s-15.47-7-15.41-15.11S651.57,57.11,659.43,57.05Z"/></g></g></svg>