<?xml version="1.0" encoding="utf-8"?>
<!-- Generator: Adobe Illustrator 23.0.0, SVG Export Plug-In . SVG Version: 6.00 Build 0)  -->
<svg version="1.1" id="Layer_1" xmlns="http://www.w3.org/2000/svg" xmlns:xlink="http://www.w3.org/1999/xlink" x="0px" y="0px"
	 viewBox="0 0 544.7 364.7" style="enable-background:new 0 0 544.7 364.7;" xml:space="preserve">
<style type="text/css">
	.st0{fill:url(#SVGID_1_);}
	.st1{clip-path:url(#SVGID_3_);}
	.st2{fill:none;stroke:#FFFFFF;stroke-miterlimit:10;}
	.st3{fill:#FFFFFF;}
</style>
<title>hero</title>
<g>
	<g id="Layer_1-2">
		<g id="OBJECTS">
			
				<radialGradient id="SVGID_1_" cx="70.33" cy="-206.6558" r="653.76" gradientTransform="matrix(1 0 0 1 0 102.41)" gradientUnits="userSpaceOnUse">
				<stop  offset="0" style="stop-color:#54CC96"/>
				<stop  offset="0.99" style="stop-color:#04D7AB"/>
			</radialGradient>
			<rect y="1.6" class="st0" width="544.7" height="363.1"/>
			<g>
				<defs>
					<rect id="SVGID_2_" y="1.6" width="544.7" height="363.1"/>
				</defs>
				<clipPath id="SVGID_3_">
					<use xlink:href="#SVGID_2_"  style="overflow:visible;"/>
				</clipPath>
				<g class="st1">
					<path class="st2" d="M125.1-232.5c0,0,67.3,153.7-29.6,346.8s41.1,335.9,226.7,337"/>
					<path class="st2" d="M170-185.9c0,0,68.9,101.8,7.7,220.6s-152.3,251,97.7,370.3"/>
					<path class="st2" d="M203.7,585.3c-2.6-2.6-257.1-87.4-186.2-267.4s16.8-261.3-135.3-360"/>
					<path class="st2" d="M680.9-296.7c0,0,5.1,167.7-156.9,310.8s-87.1,327,84.6,397.3"/>
					<path class="st2" d="M720.3-212.3c0,0,26,120.2-75.2,207.6s-234.9,176-47.5,380"/>
					<path class="st2" d="M518.2,402.2c-1.4-3.3-249.7-161.3-116.7-301.9s113.1-236.2,8.7-384.5"/>
				</g>
			</g>
			<path class="st3" d="M544.7,364.7H0v-42c181.2-17,363.5-16.9,544.7,0V364.7z"/>
			<circle class="st3" cx="449.3" cy="213.5" r="1.2"/>
			<circle class="st3" cx="464.2" cy="213.5" r="1.2"/>
			<circle class="st3" cx="479" cy="213.5" r="1.2"/>
			<circle class="st3" cx="493.9" cy="213.5" r="1.2"/>
			<path class="st3" d="M509.9,213.5c0,0.7-0.5,1.2-1.2,1.2s-1.2-0.5-1.2-1.2c0-0.7,0.5-1.2,1.2-1.2l0,0
				C509.4,212.3,509.9,212.8,509.9,213.5C509.9,213.5,509.9,213.5,509.9,213.5z"/>
			<circle class="st3" cx="449.3" cy="226.5" r="1.2"/>
			<circle class="st3" cx="464.2" cy="226.5" r="1.2"/>
			<circle class="st3" cx="479" cy="226.5" r="1.2"/>
			<circle class="st3" cx="493.9" cy="226.5" r="1.2"/>
			<path class="st3" d="M509.9,226.5c0,0.7-0.5,1.2-1.2,1.2s-1.2-0.5-1.2-1.2c0-0.7,0.5-1.2,1.2-1.2l0,0
				C509.4,225.3,509.9,225.8,509.9,226.5L509.9,226.5L509.9,226.5z"/>
			<circle class="st3" cx="449.3" cy="239.5" r="1.2"/>
			<circle class="st3" cx="464.2" cy="239.5" r="1.2"/>
			<circle class="st3" cx="479" cy="239.5" r="1.2"/>
			<circle class="st3" cx="493.9" cy="239.5" r="1.2"/>
			<path class="st3" d="M509.9,239.5c0,0.7-0.5,1.2-1.2,1.2s-1.2-0.5-1.2-1.2c0-0.7,0.5-1.2,1.2-1.2l0,0
				C509.4,238.3,509.9,238.9,509.9,239.5C509.9,239.5,509.9,239.5,509.9,239.5z"/>
			<circle class="st3" cx="449.3" cy="252.6" r="1.2"/>
			<circle class="st3" cx="464.2" cy="252.6" r="1.2"/>
			<circle class="st3" cx="479" cy="252.6" r="1.2"/>
			<circle class="st3" cx="493.9" cy="252.6" r="1.2"/>
			<path class="st3" d="M509.9,252.6c0,0.7-0.5,1.2-1.2,1.2s-1.2-0.5-1.2-1.2s0.5-1.2,1.2-1.2l0,0
				C509.4,251.4,509.9,251.9,509.9,252.6C509.9,252.6,509.9,252.6,509.9,252.6z"/>
			<path class="st3" d="M450.5,265.6c0,0.7-0.5,1.2-1.2,1.2s-1.2-0.5-1.2-1.2c0-0.7,0.5-1.2,1.2-1.2l0,0
				C449.9,264.4,450.5,264.9,450.5,265.6L450.5,265.6L450.5,265.6z"/>
			<path class="st3" d="M465.4,265.6c0,0.7-0.5,1.2-1.2,1.2s-1.2-0.5-1.2-1.2c0-0.7,0.5-1.2,1.2-1.2S465.4,264.9,465.4,265.6
				C465.4,265.6,465.4,265.6,465.4,265.6z"/>
			<path class="st3" d="M480.2,265.6c0,0.7-0.5,1.2-1.2,1.2s-1.2-0.5-1.2-1.2c0-0.7,0.5-1.2,1.2-1.2S480.2,264.9,480.2,265.6
				C480.2,265.6,480.2,265.6,480.2,265.6z"/>
			<path class="st3" d="M495.1,265.6c0,0.7-0.5,1.2-1.2,1.2s-1.2-0.5-1.2-1.2c0-0.7,0.5-1.2,1.2-1.2S495.1,264.9,495.1,265.6
				C495.1,265.6,495.1,265.6,495.1,265.6z"/>
			<path class="st3" d="M509.9,265.6c0,0.7-0.5,1.2-1.2,1.2s-1.2-0.5-1.2-1.2c0-0.7,0.5-1.2,1.2-1.2l0,0
				C509.4,264.4,509.9,264.9,509.9,265.6L509.9,265.6L509.9,265.6z"/>
			<path class="st3" d="M91.2,213.3c0,0.4-0.4,0.8-0.8,0.8c0,0,0,0,0,0c-0.4,0-0.8-0.4-0.8-0.8c0-0.4,0.3-0.8,0.8-0.8
				C90.9,212.5,91.2,212.8,91.2,213.3L91.2,213.3z"/>
			<path class="st3" d="M100.7,213.3c0,0.4-0.3,0.8-0.8,0.8s-0.8-0.3-0.8-0.8s0.3-0.8,0.8-0.8l0,0l0,0
				C100.4,212.5,100.7,212.8,100.7,213.3C100.7,213.3,100.7,213.3,100.7,213.3z"/>
			<path class="st3" d="M110.3,213.3c0,0.4-0.3,0.8-0.8,0.8c-0.4,0-0.8-0.3-0.8-0.8l0,0c0-0.4,0.3-0.8,0.8-0.8
				C109.9,212.5,110.2,212.9,110.3,213.3C110.3,213.3,110.3,213.3,110.3,213.3z"/>
			<path class="st3" d="M119.8,213.3c0,0.4-0.4,0.8-0.8,0.8c0,0,0,0,0,0c-0.4,0-0.8-0.4-0.8-0.8c0-0.4,0.3-0.8,0.8-0.8
				C119.4,212.5,119.8,212.8,119.8,213.3L119.8,213.3z"/>
			<circle class="st3" cx="128.5" cy="213.3" r="0.8"/>
			<path class="st3" d="M91.2,221.7c0,0.4-0.3,0.8-0.8,0.8c-0.4,0-0.8-0.3-0.8-0.8c0,0,0,0,0,0l0,0c0-0.4,0.3-0.8,0.8-0.8
				C90.9,220.9,91.2,221.2,91.2,221.7z"/>
			<path class="st3" d="M100.7,221.7c0,0.4-0.3,0.8-0.8,0.8c-0.4,0-0.8-0.3-0.8-0.8s0.3-0.8,0.8-0.8l0,0
				C100.4,220.9,100.7,221.2,100.7,221.7C100.7,221.6,100.7,221.6,100.7,221.7z"/>
			<path class="st3" d="M110.3,221.7c0,0.4-0.3,0.8-0.8,0.8c-0.4,0-0.8-0.3-0.8-0.8c0-0.4,0.3-0.8,0.8-0.8
				C109.9,220.9,110.3,221.2,110.3,221.7L110.3,221.7z"/>
			<path class="st3" d="M119.8,221.7c0,0.4-0.3,0.8-0.8,0.8c-0.4,0-0.8-0.3-0.8-0.8c0-0.4,0.3-0.8,0.8-0.8
				C119.4,220.9,119.8,221.2,119.8,221.7L119.8,221.7z"/>
			<circle class="st3" cx="128.5" cy="221.7" r="0.8"/>
			<path class="st3" d="M91.2,230c0,0.4-0.3,0.8-0.8,0.8c-0.4,0-0.8-0.3-0.8-0.8c0-0.4,0.3-0.8,0.8-0.8
				C90.9,229.2,91.2,229.6,91.2,230L91.2,230z"/>
			<path class="st3" d="M100.7,230c0,0.4-0.3,0.8-0.8,0.8c-0.4,0-0.8-0.3-0.8-0.8s0.3-0.8,0.8-0.8l0,0
				C100.4,229.2,100.7,229.6,100.7,230C100.7,230,100.7,230,100.7,230L100.7,230z"/>
			<path class="st3" d="M110.3,230c0,0.4-0.3,0.8-0.8,0.8c-0.4,0-0.8-0.3-0.8-0.8c0-0.4,0.3-0.8,0.8-0.8
				C109.9,229.2,110.2,229.5,110.3,230C110.2,230,110.3,230,110.3,230L110.3,230z"/>
			<path class="st3" d="M119.8,230c0,0.4-0.3,0.8-0.8,0.8c-0.4,0-0.8-0.3-0.8-0.8c0-0.4,0.3-0.8,0.8-0.8
				C119.4,229.2,119.8,229.5,119.8,230C119.8,230,119.8,230,119.8,230L119.8,230z"/>
			<path class="st3" d="M129.3,230c0,0.4-0.3,0.8-0.8,0.8c-0.4,0-0.8-0.3-0.8-0.8c0-0.4,0.3-0.8,0.8-0.8
				C128.9,229.2,129.3,229.6,129.3,230L129.3,230z"/>
			<path class="st3" d="M91.2,238.4c0,0.4-0.3,0.8-0.8,0.8c-0.4,0-0.8-0.3-0.8-0.8c0-0.4,0.3-0.8,0.8-0.8
				C90.9,237.6,91.2,237.9,91.2,238.4C91.2,238.4,91.2,238.4,91.2,238.4z"/>
			<path class="st3" d="M100.7,238.4c0,0.4-0.4,0.7-0.9,0.7c-0.4,0-0.6-0.3-0.7-0.7c0.1-0.4,0.4-0.7,0.9-0.7
				C100.4,237.7,100.7,238,100.7,238.4z"/>
			<path class="st3" d="M110.3,238.4c0,0.4-0.3,0.8-0.8,0.8c-0.4,0-0.8-0.3-0.8-0.8c0-0.4,0.3-0.8,0.8-0.8
				C109.9,237.6,110.3,237.9,110.3,238.4L110.3,238.4z"/>
			<path class="st3" d="M119.8,238.4c0,0.4-0.3,0.8-0.8,0.8c-0.4,0-0.8-0.3-0.8-0.8c0-0.4,0.3-0.8,0.8-0.8
				C119.4,237.6,119.8,237.9,119.8,238.4L119.8,238.4z"/>
			<path class="st3" d="M129.3,238.4c0,0.4-0.3,0.8-0.8,0.8c-0.4,0-0.8-0.3-0.8-0.8c0-0.4,0.3-0.8,0.8-0.8
				C128.9,237.6,129.3,237.9,129.3,238.4C129.3,238.4,129.3,238.4,129.3,238.4z"/>
			<path class="st3" d="M91.2,246.7c0,0.4-0.4,0.8-0.8,0.8c0,0,0,0,0,0c-0.4,0-0.8-0.4-0.8-0.8c0-0.4,0.3-0.8,0.8-0.8
				C90.9,245.9,91.2,246.3,91.2,246.7L91.2,246.7z"/>
			<path class="st3" d="M100.7,246.7c0,0.4-0.3,0.8-0.8,0.8s-0.8-0.3-0.8-0.8s0.3-0.8,0.8-0.8C100.4,245.9,100.7,246.3,100.7,246.7
				L100.7,246.7z"/>
			<path class="st3" d="M110.3,246.7c0,0.4-0.3,0.8-0.8,0.8c-0.4,0-0.8-0.3-0.8-0.8l0,0c0-0.4,0.3-0.8,0.8-0.8
				C109.9,245.9,110.2,246.3,110.3,246.7C110.3,246.7,110.3,246.7,110.3,246.7z"/>
			<path class="st3" d="M119.8,246.7c0,0.4-0.4,0.8-0.8,0.8c0,0,0,0,0,0c-0.4,0-0.8-0.4-0.8-0.8c0-0.4,0.3-0.8,0.8-0.8
				C119.4,245.9,119.8,246.3,119.8,246.7L119.8,246.7z"/>
			<circle class="st3" cx="128.5" cy="246.7" r="0.8"/>
		</g>
	</g>
</g>
</svg>
