<?xml version="1.0" encoding="iso-8859-1"?>
<!-- Generator: Adobe Illustrator 19.0.0, SVG Export Plug-In . SVG Version: 6.00 Build 0)  -->
<svg version="1.1" id="Layer_1" xmlns="http://www.w3.org/2000/svg" xmlns:xlink="http://www.w3.org/1999/xlink" x="0px" y="0px"
	 viewBox="0 0 297 297" style="enable-background:new 0 0 297 297;" xml:space="preserve">
<g>
	<g>
		<circle style="fill:#314B5A;" cx="148.5" cy="148.5" r="148.5"/>
	</g>
	<path style="fill:#223F51;" d="M296.984,149.762L176.771,29.608l-66.778,240.195l26.786,26.738
		c3.867,0.302,7.776,0.459,11.721,0.459C230.092,297,296.305,231.194,296.984,149.762z"/>
	<g>
		<path style="fill:#99ABD5;" d="M148.5,188L148.5,188c20.987,0,38-17.013,38-38V55c0-20.987-17.013-38-38-38l0,0
			c-20.987,0-38,17.013-38,38v95C110.5,170.987,127.513,188,148.5,188z"/>
	</g>
	<path style="fill:#D0D5D9;" d="M222.5,148.5c0-4.418-3.582-8-8-8s-8,3.582-8,8c0,31.981-26.019,58-58,58s-58-26.019-58-58
		c0-4.418-3.582-8-8-8s-8,3.582-8,8c0,38.1,28.946,69.558,66,73.561V256h-25c-4.418,0-8,3.582-8,8s3.582,8,8,8h66
		c4.418,0,8-3.582,8-8s-3.582-8-8-8h-25v-33.939C193.554,218.058,222.5,186.6,222.5,148.5z"/>
	<path style="fill:#B1B6BA;" d="M222.5,148.5c0-4.418-3.582-8-8-8s-8,3.582-8,8c0,31.981-26.019,58-58,58
		c-0.112,0-0.221-0.008-0.333-0.008V272H181.5c4.418,0,8-3.582,8-8s-3.582-8-8-8h-25v-33.939
		C193.554,218.058,222.5,186.6,222.5,148.5z"/>
	<g>
		<path style="fill:#7E93BC;" d="M148.5,17L148.5,17c-0.112,0-0.222,0.007-0.333,0.008v170.983c0.111,0.001,0.221,0.008,0.333,0.008
			l0,0c20.987,0,38-17.013,38-38V55C186.5,34.013,169.487,17,148.5,17z"/>
	</g>
	<g>
		<rect x="110.5" y="55" style="fill:#5065A1;" width="21.5" height="19"/>
	</g>
	<g>
		<rect x="110.5" y="93" style="fill:#5065A1;" width="21.5" height="19"/>
	</g>
	<g>
		<rect x="110.5" y="131" style="fill:#5065A1;" width="21.5" height="19"/>
	</g>
	<g>
		<rect x="165" y="55" style="fill:#324C84;" width="21.5" height="19"/>
	</g>
	<g>
		<rect x="165" y="93" style="fill:#324C84;" width="21.5" height="19"/>
	</g>
	<g>
		<rect x="165" y="131" style="fill:#324C84;" width="21.5" height="19"/>
	</g>
</g>
<g>
</g>
<g>
</g>
<g>
</g>
<g>
</g>
<g>
</g>
<g>
</g>
<g>
</g>
<g>
</g>
<g>
</g>
<g>
</g>
<g>
</g>
<g>
</g>
<g>
</g>
<g>
</g>
<g>
</g>
</svg>
