<?xml version="1.0" standalone="no"?>
<!DOCTYPE svg PUBLIC "-//W3C//DTD SVG 20010904//EN"
 "http://www.w3.org/TR/2001/REC-SVG-20010904/DTD/svg10.dtd">
<svg version="1.0" xmlns="http://www.w3.org/2000/svg"
 width="992.000000pt" height="992.000000pt" viewBox="0 0 992.000000 992.000000"
 preserveAspectRatio="xMidYMid meet">
<metadata>
Created by potrace 1.11, written by Peter Selinger 2001-2013
</metadata>
<g transform="translate(0.000000,992.000000) scale(0.100000,-0.100000)"
fill="#000000" stroke="none">
<path d="M4829 9915 c-2 -2 -24 -6 -49 -9 -25 -3 -56 -8 -70 -11 -14 -3 -38
-8 -54 -11 -16 -2 -32 -7 -36 -9 -3 -2 -17 -6 -31 -8 -38 -7 -149 -51 -219
-87 -115 -58 -734 -412 -742 -424 -4 -6 -8 -8 -8 -4 0 4 -55 -25 -122 -64 -68
-39 -143 -82 -168 -96 -25 -13 -71 -40 -103 -58 -32 -19 -62 -34 -68 -34 -5 0
-9 -4 -9 -10 0 -5 -4 -10 -10 -10 -5 0 -44 -20 -86 -45 -41 -25 -77 -45 -79
-45 -1 0 -53 -29 -114 -65 -62 -36 -116 -65 -122 -65 -5 0 -9 -3 -9 -7 0 -5
-27 -21 -60 -37 -33 -16 -60 -33 -60 -37 0 -3 -8 -9 -17 -12 -10 -3 -45 -21
-78 -40 -33 -19 -103 -59 -155 -89 -52 -30 -106 -61 -120 -69 -14 -8 -28 -18
-32 -24 -4 -5 -8 -6 -8 -2 0 5 -12 0 -27 -11 -16 -10 -102 -61 -193 -113 -91
-52 -173 -98 -182 -104 -9 -5 -29 -17 -45 -26 -15 -9 -73 -42 -128 -74 -55
-31 -118 -68 -140 -80 -22 -13 -80 -46 -130 -75 -49 -29 -110 -64 -135 -78
-25 -14 -69 -40 -98 -59 -29 -18 -54 -33 -57 -33 -3 0 -13 -6 -22 -14 -10 -8
-45 -36 -79 -63 -88 -69 -132 -111 -190 -178 -56 -66 -159 -215 -148 -215 4 0
0 -8 -9 -17 -8 -10 -19 -30 -22 -45 -4 -16 -11 -28 -15 -28 -4 0 -10 -10 -13
-22 -3 -13 -16 -55 -31 -94 -14 -40 -28 -87 -31 -105 -3 -19 -11 -52 -17 -74
-6 -22 -13 -67 -16 -100 -8 -84 -7 -3899 1 -3960 4 -27 9 -61 12 -75 3 -14 7
-38 10 -55 6 -37 10 -55 18 -75 7 -20 28 -88 31 -103 4 -18 44 -107 66 -148
11 -20 26 -48 33 -61 6 -13 34 -55 62 -93 44 -63 68 -92 104 -129 6 -6 26 -26
44 -44 64 -67 261 -212 337 -249 14 -7 43 -24 65 -38 22 -13 47 -28 55 -32 8
-4 48 -26 88 -50 40 -24 75 -43 78 -43 4 0 74 -42 130 -78 10 -6 26 -15 34
-19 8 -4 47 -25 85 -48 39 -22 77 -44 85 -48 8 -4 33 -18 55 -31 22 -14 51
-31 65 -39 39 -21 312 -178 340 -195 14 -9 27 -16 30 -16 7 -1 113 -63 127
-76 7 -5 15 -10 18 -10 3 0 91 -50 196 -110 105 -61 192 -110 194 -110 2 0 38
-20 79 -45 42 -25 79 -45 82 -45 3 0 10 -5 17 -11 18 -15 468 -269 478 -269 5
0 9 -4 9 -9 0 -5 8 -11 18 -14 17 -6 96 -49 202 -111 31 -19 67 -37 79 -41 11
-3 21 -11 21 -16 0 -5 4 -9 10 -9 5 0 48 -22 96 -50 48 -27 90 -50 94 -50 4 0
13 -7 20 -15 7 -9 15 -14 17 -11 2 2 41 -18 86 -45 45 -27 88 -49 95 -49 6 0
12 -4 12 -9 0 -21 277 -140 362 -155 15 -2 32 -7 37 -10 5 -3 26 -8 47 -11 22
-3 50 -8 64 -11 14 -3 95 -7 180 -9 142 -3 199 2 325 30 11 2 33 7 49 10 16 3
39 11 50 17 12 6 21 10 21 8 0 -18 373 159 383 183 2 4 8 7 13 7 9 0 174 91
194 107 6 5 24 14 40 21 17 8 41 21 55 30 14 9 27 17 30 17 3 0 33 17 68 38
35 20 67 37 73 37 5 0 9 3 9 8 0 4 19 16 43 27 23 11 44 22 47 25 3 3 15 11
28 18 30 17 118 65 162 88 19 11 37 21 40 25 3 3 52 32 110 64 151 84 170 95
261 148 46 26 86 47 91 47 4 0 8 5 8 10 0 6 5 10 10 10 12 0 185 96 219 122
13 10 27 15 32 12 5 -3 9 -1 9 4 0 4 15 16 33 25 17 9 46 25 62 35 17 9 73 42
125 71 52 30 97 57 100 60 3 3 25 16 50 29 25 13 90 50 145 82 55 33 124 72
153 87 28 15 52 31 52 35 0 4 5 8 11 8 6 0 60 29 120 65 61 36 115 65 120 65
5 0 9 5 9 10 0 6 4 10 9 10 5 0 44 20 85 45 42 25 78 45 81 45 2 0 24 14 48
30 25 17 49 30 55 30 6 0 12 3 14 8 2 4 17 14 33 23 75 39 254 144 292 170 23
16 44 29 46 29 8 0 92 76 157 140 66 66 180 215 180 236 0 8 4 14 8 14 10 0
61 107 97 203 28 75 45 145 62 252 10 59 9 3959 -1 4035 -4 36 -10 68 -12 71
-2 4 -6 24 -9 45 -4 22 -9 48 -13 59 -3 11 -6 22 -7 25 -11 62 -101 261 -141
317 -13 17 -24 35 -24 38 0 21 -153 191 -232 257 -28 24 -56 48 -62 53 -15 15
-173 118 -222 146 -21 12 -64 35 -94 52 -30 17 -66 38 -80 47 -14 9 -88 52
-165 95 -77 44 -143 84 -147 90 -4 5 -8 6 -8 2 0 -5 -12 0 -27 11 -16 10 -102
61 -193 112 -91 51 -173 100 -182 108 -10 8 -18 13 -18 10 0 -5 -148 79 -175
99 -6 5 -40 23 -75 42 -36 19 -67 37 -70 40 -3 3 -18 13 -35 21 -16 8 -46 24
-65 36 -19 11 -55 32 -80 46 -75 42 -123 70 -155 89 -16 11 -37 22 -45 26 -19
9 -230 130 -250 143 -8 6 -22 13 -30 17 -8 4 -35 19 -61 33 -25 15 -65 38 -90
52 -24 14 -76 44 -116 67 -39 22 -88 50 -107 61 -20 11 -53 30 -73 41 -21 12
-58 33 -83 47 -25 14 -62 36 -82 49 -21 12 -40 23 -43 23 -2 0 -34 18 -70 40
-36 22 -68 40 -70 40 -3 0 -22 11 -43 23 -37 24 -116 69 -182 103 -19 11 -37
21 -40 24 -3 3 -15 11 -27 18 -13 6 -33 18 -45 25 -13 6 -25 14 -28 17 -19 20
-261 127 -295 131 -5 1 -18 5 -28 11 -10 5 -26 11 -35 13 -9 2 -53 11 -97 20
-71 15 -385 31 -396 20z m331 -2801 c0 15 77 -31 115 -67 24 -23 134 -130 246
-237 231 -223 230 -222 569 -550 488 -474 554 -542 582 -598 28 -57 27 -78 -3
-111 -10 -11 -19 -24 -19 -28 0 -8 -39 -57 -87 -109 -13 -14 -23 -29 -23 -34
0 -6 -3 -10 -8 -10 -10 0 17 27 -622 -615 -635 -638 -666 -667 -717 -692 -75
-35 -150 -13 -232 68 -88 88 -108 170 -62 258 15 28 159 180 392 415 203 204
369 374 369 378 0 5 3 8 8 8 11 0 256 240 286 281 30 41 57 121 50 150 -2 10
-6 28 -9 40 -10 45 -59 112 -142 191 -255 244 -944 938 -962 968 -23 38 -27
84 -10 127 22 59 188 187 219 168 5 -3 11 -1 15 5 4 7 12 7 26 0 10 -6 19 -9
19 -6z m-278 -1296 c23 -13 117 -104 151 -147 19 -24 21 -75 4 -98 -5 -7 -7
-13 -3 -13 18 0 -36 -73 -113 -153 -379 -392 -565 -580 -684 -690 -233 -216
-266 -255 -294 -352 -20 -66 5 -154 64 -225 28 -35 113 -118 189 -185 177
-157 812 -810 842 -867 19 -35 23 -53 19 -96 -3 -30 -12 -61 -21 -71 -9 -10
-16 -20 -16 -24 0 -10 -90 -97 -100 -97 -6 0 -10 -5 -10 -10 0 -6 -3 -9 -7 -8
-5 1 -20 -4 -35 -10 -35 -14 -95 -9 -134 11 -42 22 -101 79 -641 614 -253 252
-528 524 -610 605 -81 80 -152 153 -158 160 -54 73 -64 158 -28 231 18 36 183
206 676 697 358 358 655 650 659 650 5 0 8 4 8 9 0 12 90 78 115 84 32 7 102
-1 127 -15z"/>
</g>
</svg>
